# xmcd
# Track frame offsets:
# 150
# 22950
# 41100
# 60000
# 78450
# 95700
# 112575
# 134625
# 147825
# 158775
# 175050
# 187725
# 204900
# 226050
# 245925
#
# Disc length: 3299 seconds
# Revision: 0
# Processed by: cddbd v1.5.2PL0 Copyright (c) Steve Scherf et al.
# Submitted via: VisiTrax 2.10.0.244 - For more info visit www.synapsa.com
#
DISCID=ba0ce10f
DTITLE=Big and Rich - Sing Like Big and Rich - AKS-10002
DYEAR=1900
DGENRE=
TTITLE0=Rollin' (The Ballad Of Big and Rich
TTITLE1=Wild West Show
TTITLE2=Big Time
TTITLE3=Kick My Ass
TTITLE4=Six Foot Town
TTITLE5=Holy Water
TTITLE6=Saved
TTITLE7=Real World
TTITLE8=I'm A Rock Star, I'm A Cowboy
TTITLE9=Save A Horse (Ride A Cowboy)
TTITLE10=Drinkin' 'Bout You
TTITLE11=Love Train
TTITLE12=Deadwood Mountain
TTITLE13=Live This Life
TTITLE14=blank track
EXTD=
EXTT0=
EXTT1=
EXTT2=
EXTT3=
EXTT4=
EXTT5=
EXTT6=
EXTT7=
EXTT8=
EXTT9=
EXTT10=
EXTT11=
EXTT12=
EXTT13=
EXTT14=
PLAYORDER=
